# xmcd
#
# Track frame offsets: 
#        150
#        22628
#        45356
#        65694
#        80961
#        104457
#        131693
#        156366
#        173853
#        199809
#
# Disc length: 2913 seconds
#
# Revision: 0
# Processed by: cddbd v1.5.2PL0 Copyright (c) Steve Scherf et al.
# Submitted via: ExactAudioCopy v1.0b3
#
DISCID=840b5f0a
DTITLE=Quang Linh - Hue Ngan Thuong 3
DYEAR=1996
DGENRE=
TTITLE0=Hue dem trang
TTITLE1=Nguoi em Vy Da
TTITLE2=Thanh pho ben bo song Huong
TTITLE3=Thuong ve co do
TTITLE4=Thanh pho chung minh thuong
TTITLE5=Nho Hue
TTITLE6=Tieng ho song Huong
TTITLE7=Thao thuc vi em
TTITLE8=Hue tinh yeu cua toi
TTITLE9=Than kinh non nuoc huu tinh
EXTD=
EXTT0=
EXTT1=
EXTT2=
EXTT3=
EXTT4=
EXTT5=
EXTT6=
EXTT7=
EXTT8=
EXTT9=
PLAYORDER=
